HIERARCHY
ROOT Hips
{
	OFFSET 0.00000 0.00000 0.00000
	CHANNELS 6 Xposition Yposition Zposition Zrotation Yrotation Xrotation 
	JOINT LHipJoint
	{
		OFFSET 0 0 0
		CHANNELS 3 Zrotation Yrotation Xrotation
		JOINT LeftUpLeg
		{
			OFFSET 2.36090 -1.39315 1.24752
			CHANNELS 3 Zrotation Yrotation Xrotation
			JOINT LeftLeg
			{
				OFFSET 2.06810 -5.68207 0.00000
				CHANNELS 3 Zrotation Yrotation Xrotation
				JOINT LeftFoot
				{
					OFFSET 2.46631 -6.77613 0.00000
					CHANNELS 3 Zrotation Yrotation Xrotation
					JOINT LeftToeBase
					{
						OFFSET 0.26031 -0.71520 1.99545
						CHANNELS 3 Zrotation Yrotation Xrotation
						End Site
						{
							OFFSET 0.00000 -0.00000 1.05957
						}
					}
				}
			}
		}
	}
	JOINT RHipJoint
	{
		OFFSET 0 0 0
		CHANNELS 3 Zrotation Yrotation Xrotation
		JOINT RightUpLeg
		{
			OFFSET -2.25243 -1.39315 1.24752
			CHANNELS 3 Zrotation Yrotation Xrotation
			JOINT RightLeg
			{
				OFFSET -2.17343 -5.97145 0.00000
				CHANNELS 3 Zrotation Yrotation Xrotation
				JOINT RightFoot
				{
					OFFSET -2.52372 -6.93386 0.00000
					CHANNELS 3 Zrotation Yrotation Xrotation
					JOINT RightToeBase
					{
						OFFSET -0.22538 -0.61923 2.11447
						CHANNELS 3 Zrotation Yrotation Xrotation
						End Site
						{
							OFFSET -0.00000 -0.00000 1.10506
						}
					}
				}
			}
		}
	}
	JOINT LowerBack
	{
		OFFSET 0 0 0
		CHANNELS 3 Zrotation Yrotation Xrotation
		JOINT Spine
		{
			OFFSET 0.01594 2.13103 0.08007
			CHANNELS 3 Zrotation Yrotation Xrotation
			JOINT Spine1
			{
				OFFSET 0.01393 2.09723 0.18338
				CHANNELS 3 Zrotation Yrotation Xrotation
				JOINT Neck
				{
					OFFSET 0 0 0
					CHANNELS 3 Zrotation Yrotation Xrotation
					JOINT Neck1
					{
						OFFSET 0.05351 1.38915 0.32494
						CHANNELS 3 Zrotation Yrotation Xrotation
						JOINT Head
						{
							OFFSET 0.00711 1.45992 -0.21666
							CHANNELS 3 Zrotation Yrotation Xrotation
							End Site
							{
								OFFSET -0.00433 1.47702 -0.11056
							}
						}
					}
				}
				JOINT LeftShoulder
				{
					OFFSET 0 0 0
					CHANNELS 3 Zrotation Yrotation Xrotation
					JOINT LeftArm
					{
						OFFSET 2.87198 0.92249 0.11132
						CHANNELS 3 Zrotation Yrotation Xrotation
						JOINT LeftForeArm
						{
							OFFSET 5.52731 -0.00000 0.00000
							CHANNELS 3 Zrotation Yrotation Xrotation
							JOINT LeftHand
							{
								OFFSET 3.11059 -0.00000 0.00000
								CHANNELS 3 Zrotation Yrotation Xrotation
								JOINT LeftFingerBase
								{
									OFFSET 0 0 0
									CHANNELS 3 Zrotation Yrotation Xrotation
									JOINT LeftHandIndex1
									{
										OFFSET 0.41963 -0.00000 0.00000
										CHANNELS 3 Zrotation Yrotation Xrotation
										End Site
										{
											OFFSET 0.33831 -0.00000 0.00000
										}
									}
								}
								JOINT LThumb
								{
									OFFSET 0 0 0
									CHANNELS 3 Zrotation Yrotation Xrotation
									End Site
									{
										OFFSET 0.34348 -0.00000 0.34348
									}
								}
							}
						}
					}
				}
				JOINT RightShoulder
				{
					OFFSET 0 0 0
					CHANNELS 3 Zrotation Yrotation Xrotation
					JOINT RightArm
					{
						OFFSET -2.94710 0.68072 0.32187
						CHANNELS 3 Zrotation Yrotation Xrotation
						JOINT RightForeArm
						{
							OFFSET -5.25396 -0.00000 -0.00000
							CHANNELS 3 Zrotation Yrotation Xrotation
							JOINT RightHand
							{
								OFFSET -3.10567 -0.00000 0.00000
								CHANNELS 3 Zrotation Yrotation Xrotation
								JOINT RightFingerBase
								{
									OFFSET 0 0 0
									CHANNELS 3 Zrotation Yrotation Xrotation
									JOINT RightHandIndex1
									{
										OFFSET -0.49868 -0.00000 0.00000
										CHANNELS 3 Zrotation Yrotation Xrotation
										End Site
										{
											OFFSET -0.40204 -0.00000 0.00000
										}
									}
								}
								JOINT RThumb
								{
									OFFSET 0 0 0
									CHANNELS 3 Zrotation Yrotation Xrotation
									End Site
									{
										OFFSET -0.40818 -0.00000 0.40818
									}
								}
							}
						}
					}
				}
			}
		}
	}
}
MOTION
Frames: 10
Frame Time: 0.030303
0.00 0.00 0.00 -60.0520 -59.3824 43.5306 0.0000 0.0000 0.0000 -52.7128 -20.6724 -97.0633 34.0004 14.4280 135.0199 -9.8194 46.5452 -23.0230 12.8399 18.7236 68.6274 0.0000 0.0000 0.0000 -50.1128 38.7258 -89.2466 -36.6438 -11.2504 146.8709 -8.0532 7.4265 56.3802 -1.3395 -7.3279 20.6906 5.8594 1.3786 23.3397 8.1945 3.4265 5.0804 4.7136 1.3729 -7.5785 2.5787 0.5883 -22.8494 5.0660 -2.6389 32.4985 1.1224 -0.2153 15.3186 -0.0000 0.0000 0.0000 -86.9894 5.9781 25.1408 26.7791 -37.9677 -9.3629 -0.0000 0.0000 -60.2827 109.5500 14.0563 145.6295 -7.1250 0.0000 -0.0000 139.2877 48.2212 118.4617 -0.0000 0.0000 0.0000 41.1688 37.8692 35.8475 -32.3720 42.8417 -12.9930 0.0000 -0.0000 -2.5879 28.5231 -13.2416 -7.0961 7.1250 -0.0000 -0.0000 45.1413 -38.5511 9.7059
0.00 0.00 0.00 -56.9269 -58.8929 38.1503 0.0000 0.0000 0.0000 -57.9751 -17.9992 -91.3671 34.0146 14.4142 135.0770 -5.1184 36.6741 -9.8191 13.4293 18.9317 70.4537 0.0000 0.0000 0.0000 -45.3056 54.5242 -82.1529 -35.5302 -12.7606 141.5212 -10.3939 -3.5174 61.7531 -3.5567 -11.5458 34.1437 6.6957 1.0477 31.4093 7.1727 3.7552 5.6533 2.7174 1.3122 -10.1082 2.1510 0.4365 -23.7748 5.9838 -2.9056 31.2617 1.5131 -0.2340 14.9900 -0.0000 -0.0000 0.0000 -87.0820 -11.1043 13.8548 15.6269 -25.0122 -3.4867 -0.0000 0.0000 -59.4276 118.2894 13.8462 156.0274 -7.1250 0.0000 -0.0000 148.4473 45.9473 133.1935 -0.0000 -0.0000 0.0000 43.7048 39.5070 37.2864 -29.8182 40.7370 -11.2908 0.0000 -0.0000 -0.3944 26.0569 -12.7883 -6.1772 7.1250 -0.0000 -0.0000 43.4323 -38.5524 9.0754
0.00 0.00 0.00 -33.0064 -54.2620 43.2343 0.0000 0.0000 0.0000 -34.5526 -36.8934 -102.6922 35.5077 12.7882 141.4194 -1.2435 27.7327 11.2664 9.9714 17.3937 59.3927 0.0000 0.0000 0.0000 -30.9938 18.0503 -82.5854 -37.1878 -10.3846 149.7686 -2.9615 23.6002 47.0133 -0.4476 -4.2924 11.9008 -2.9545 5.2781 32.6333 0.6593 5.4108 4.0268 0.1663 2.4107 -12.6168 -0.4935 -3.0864 -29.2038 12.4309 -8.2358 23.7763 3.3546 -1.9141 13.5945 -0.0000 0.0000 0.0000 -74.9043 -17.6369 10.7072 16.2694 -25.8846 -3.7628 -0.0000 0.0000 -52.1059 111.4578 16.2241 144.5940 -7.1250 0.0000 -0.0000 138.8263 51.6156 118.9556 -0.0000 0.0000 0.0000 63.3524 48.0027 41.1649 -18.8260 29.2019 -4.9457 0.0000 0.0000 6.3206 -26.1440 -10.0155 4.8793 7.1250 -0.0000 -0.0000 0.7694 -41.1085 0.0738
0.00 0.00 0.00 -25.1104 -53.0159 45.8833 0.0000 0.0000 0.0000 -25.3383 -27.2819 -102.2161 35.8001 12.4217 142.7593 1.3451 27.7819 26.8967 5.0060 13.3906 40.8488 0.0000 0.0000 0.0000 -13.9691 26.0540 -81.1849 -36.7898 -11.0278 147.6264 -2.1765 12.7966 34.8414 -0.0003 0.1111 -0.3052 -10.1646 6.8013 35.2685 -1.0110 4.1454 3.7106 2.4748 2.1329 -14.0601 -2.1400 -4.2523 -32.0941 17.8455 -10.2036 19.1638 5.2377 -2.3284 13.0179 -0.0000 -0.0000 0.0000 -66.8777 -20.5044 2.1525 14.1821 -22.9944 -2.8989 -0.0000 0.0000 -48.1487 69.6304 -10.6667 -26.4970 -7.1250 0.0000 -0.0000 26.4196 3.7963 -27.8169 -0.0000 -0.0000 0.0000 74.6707 45.9381 35.5684 -19.8262 30.4324 -5.4430 0.0000 0.0000 10.7169 -39.6254 -6.3891 5.2645 7.1250 -0.0000 -0.0000 -11.0465 -38.0351 -1.9224
0.00 0.00 0.00 -21.4778 -54.1352 46.2387 0.0000 0.0000 0.0000 -24.9689 -18.9928 -97.4426 35.4231 12.8908 141.0388 5.2668 19.4855 42.2600 0.3170 3.6190 10.0072 0.0000 0.0000 0.0000 -10.3029 30.6507 -78.0993 -36.0597 -12.0806 143.9824 -2.0501 11.0161 32.8522 -0.0145 0.7767 -2.1345 -10.5843 6.0978 36.6597 -3.0779 2.5091 3.3590 1.0724 1.4176 -14.7128 -0.4886 -3.1299 -32.5951 18.4066 -9.4335 18.1944 5.3061 -1.8376 12.6187 0.0000 -0.0000 0.0000 -60.1483 -24.8651 -24.9036 6.9473 -11.8325 -0.7208 -0.0000 0.0000 -16.5061 60.8613 10.3949 17.9344 -7.1250 0.0000 -0.0000 33.0591 47.5097 2.2880 0.0000 -0.0000 0.0000 80.5404 42.5650 41.2727 -25.0200 36.2244 -8.3017 0.0000 0.0000 9.3795 -41.6452 -9.8645 8.6622 7.1250 -0.0000 -0.0000 -13.2955 -42.6859 -0.7740
0.00 0.00 0.00 -17.8288 -54.8116 49.9765 0.0000 0.0000 0.0000 -18.2656 -8.8900 -93.7899 34.6973 13.7168 137.8854 8.4056 17.2784 54.0153 0.0059 -0.4944 -1.3585 0.0000 0.0000 0.0000 -7.9884 35.3823 -75.3623 -34.6136 -13.8061 137.5338 -2.0539 10.5866 32.5769 -0.0022 -0.3040 0.8352 -10.0288 4.9549 36.2782 -4.0172 1.1693 2.1159 0.3293 0.8900 -15.9267 1.0806 -2.0120 -32.0929 17.7717 -8.1017 16.7142 4.9816 -1.3381 11.6899 0.0000 -0.0000 0.0000 -62.5917 -18.6487 -3.0980 21.3251 -32.2059 -6.2223 -0.0000 0.0000 -40.2241 54.9577 6.1253 8.6511 -7.1250 0.0000 -0.0000 24.4209 39.3126 -3.6827 0.0000 -0.0000 0.0000 84.8512 36.3597 40.9212 -30.0916 40.9718 -11.4697 0.0000 0.0000 12.9049 -41.0566 -13.6141 11.5863 7.1250 -0.0000 -0.0000 -13.2087 -47.3418 0.7762
0.00 0.00 0.00 -12.7993 -60.8065 49.6924 0.0000 0.0000 0.0000 -8.3712 3.5124 -78.7593 33.4823 14.9119 132.9745 11.5542 10.7111 64.7977 1.6668 8.1346 23.1237 0.0000 0.0000 0.0000 -2.7557 38.7302 -63.6344 -32.7080 -15.5729 130.0298 -0.3231 9.5494 18.1166 -0.1358 2.3754 -6.5444 -12.2165 5.5385 39.0925 -1.7848 0.8948 0.1364 3.9446 1.2538 -19.4769 1.3096 -0.2374 -30.2623 13.1891 -4.2141 15.8711 3.8614 -0.2255 10.3949 -0.0000 0.0000 0.0000 -76.7371 -30.1318 43.2413 37.3829 -46.4406 -16.5170 -0.0000 0.0000 -16.8853 48.8049 -13.7098 -15.1510 -7.1250 0.0000 -0.0000 13.9992 10.1194 -11.6854 -0.0000 0.0000 0.0000 87.8574 31.0401 49.8006 -27.7726 38.9060 -9.9805 0.0000 0.0000 18.6139 -47.5439 -13.0258 13.8392 7.1250 -0.0000 -0.0000 -19.7561 -47.8690 1.4519
0.00 0.00 0.00 -11.5779 -64.3711 48.7589 0.0000 0.0000 0.0000 -5.0607 4.8286 -73.9555 33.6090 14.7969 133.4683 8.8634 -3.6660 58.0575 1.6139 8.0109 22.7471 0.0000 0.0000 0.0000 -2.9671 39.1997 -60.7039 -32.7672 -15.5249 130.2505 0.6998 15.2423 10.2942 -0.3759 3.9376 -10.9011 -12.3909 5.6554 38.9631 -1.6603 0.9910 -0.2474 4.1272 1.3554 -19.9409 1.3526 0.3772 -29.9692 10.7263 -2.6373 14.9773 3.1921 0.1640 9.8134 0.0000 -0.0000 0.0000 -77.6623 -29.3667 43.4418 29.8249 -40.7428 -11.2951 -0.0000 0.0000 -15.3922 55.0960 -19.1046 -25.1311 -7.1250 0.0000 -0.0000 16.2801 -0.1331 -17.0192 0.0000 -0.0000 0.0000 89.2630 31.1614 53.0097 -23.8460 35.0010 -7.6181 0.0000 0.0000 20.5989 -51.4476 -13.4984 16.3252 7.1250 -0.0000 -0.0000 -24.1597 -49.4343 2.7882
0.00 0.00 0.00 -10.0277 -65.1999 47.6561 0.0000 0.0000 0.0000 -2.3664 3.4402 -72.8117 33.8639 14.5589 134.4745 3.7671 -15.2686 44.0816 0.2392 3.1474 8.6893 0.0000 0.0000 0.0000 -2.5032 37.8155 -59.7878 -33.0172 -15.3174 131.1909 1.7284 22.5301 7.4710 -0.4146 4.1333 -11.4521 -11.6248 5.4530 38.4807 -1.8529 1.1174 -0.4136 3.4636 1.3392 -19.9884 1.3763 0.3479 -29.5595 10.6388 -2.5737 14.2840 3.1429 0.1436 9.4912 0.0000 0.0000 0.0000 -78.3953 -30.3706 44.7169 26.6122 -37.8069 -9.2604 -0.0000 0.0000 -14.8193 56.7444 -19.7576 -27.2706 -7.1250 0.0000 -0.0000 17.0068 -1.9896 -18.4062 0.0000 0.0000 0.0000 89.5555 31.1444 53.1189 -22.3689 33.3914 -6.7878 0.0000 0.0000 21.5436 -52.4022 -13.7128 17.1108 7.1250 -0.0000 -0.0000 -25.3411 -49.9831 3.3005
0.00 0.00 0.00 -8.9395 -65.5360 45.9637 0.0000 0.0000 0.0000 -0.0843 2.1120 -71.5613 33.9939 14.4342 134.9938 -0.3059 -21.4368 28.0203 0.0335 -1.1812 -3.2474 0.0000 0.0000 0.0000 -0.5340 36.5279 -57.8518 -33.3099 -15.0653 132.3078 2.2710 26.0815 4.2632 -0.4074 4.0977 -11.3516 -10.8339 5.2657 39.0160 -1.8402 1.1577 -0.4041 3.0379 1.2878 -20.2010 1.6302 0.5552 -29.5276 10.5074 -2.2905 13.4932 3.0819 0.2376 9.1840 -0.0000 0.0000 0.0000 -79.1257 -30.8146 44.7873 24.3456 -35.5276 -7.9065 -0.0000 0.0000 -15.0568 56.4697 -20.7178 -28.0963 -7.1250 0.0000 -0.0000 16.5865 -3.1766 -18.2446 -0.0000 0.0000 0.0000 89.9714 31.2002 53.2001 -21.3409 32.2241 -6.2307 0.0000 0.0000 22.4161 -52.9505 -13.9625 17.7251 7.1250 -0.0000 -0.0000 -26.0989 -50.4819 3.7483
